<?xml version="1.0" encoding="utf-8"?>
<!-- Generator: Adobe Illustrator 24.1.1, SVG Export Plug-In . SVG Version: 6.00 Build 0)  -->
<svg version="1.1" id="Layer_1" xmlns="http://www.w3.org/2000/svg" xmlns:xlink="http://www.w3.org/1999/xlink" x="0px" y="0px"
	 viewBox="0 0 512 512" style="enable-background:new 0 0 512 512;" xml:space="preserve">
<style type="text/css">
	.st0{fill:#57BB63;}
	.st1{fill:#FFFFFF;}
</style>
<g id="XMLID_1_">
	<circle id="XMLID_3_" class="st0" cx="256" cy="256" r="256"/>
	<path id="XMLID_7_" class="st1" d="M256.9,394.7c-24.2,0-47.5-6.5-67-16.8l-77.3,24.2l25.1-74.5c-13-20.5-19.5-45.6-19.5-71.7
		c0-76.3,62.4-137.8,139.6-137.8S397.5,179.7,397.5,256S333.3,394.7,256.9,394.7z M256.9,140.6c-64.2,0-117.3,52.1-117.3,116.4
		c0,25.1,8.4,49.3,22.3,68l-14.9,42.8l44.7-14c18.6,12.1,41,19.5,64.2,19.5c64.2,0,117.3-52.1,117.3-116.4S321.2,140.6,256.9,140.6z
		 M326.7,287.7c-0.9-1.9-2.8-1.9-6.5-3.7c-3.7-1.9-20.5-10.2-23.3-11.2c-2.8-0.9-5.6-1.9-7.4,1.9c-1.9,3.7-8.4,11.2-11.2,13
		c-1.9,1.9-3.7,2.8-7.4,0.9c-3.7-1.9-14-5.6-27-16.8c-10.2-9.3-16.8-20.5-18.6-23.3c-1.9-3.7,0-5.6,1.9-6.5c1.9-1.9,3.7-3.7,4.7-5.6
		c1.9-1.9,1.9-3.7,3.7-5.6c0.9-1.9,0.9-4.7,0-5.6c-0.9-1.9-7.4-18.6-10.2-25.1c-2.8-6.5-5.6-5.6-7.4-5.6c-1.9,0-4.7,0-6.5,0
		c-1.9,0-5.6,0.9-9.3,4.7c-2.8,3.7-12.1,11.2-12.1,27.9s12.1,32.6,14,35.4c1.9,1.9,23.3,37.2,58.6,51.2c34.4,14,34.4,9.3,41,8.4
		c6.5-0.9,20.5-8.4,23.3-15.8C327.7,296,327.7,289.5,326.7,287.7z"/>
</g>
</svg>
